# xmcd
#
# Track frame offsets:
#	150
#	12197
#	23127
#	36430
#	50190
#	61517
#	75680
#	87367
#	101237
#	112780
#	124725
#	135857
#	149262
#	162527
#
# Disc length: 2365 seconds
# Revision: 0
# Processed by: cddbd v1.5.2PL0 Copyright (c) Steve Scherf et al.
# Submitted via: dBpowerAMP V12.0
#
DISCID=b4093b0e
DTITLE=Various Artist - Atlantic Ultimate 60's Soul Smashes
DYEAR=1998
DGENRE=R&B/Soul
TTITLE0=Sam and Dave - Soul Man
TTITLE1=Aretha Franklin - Respect
TTITLE2=Percy Sledge - When a Man Loves a Woman
TTITLE3=The Drifters - On Broadway
TTITLE4=Barbara Lewis - Baby I'm Yours
TTITLE5=Joe Tex - Hold What You've Got
TTITLE6=The Capitols - Cool Jerk
TTITLE7=Eddie Floyd - Knock on Wood
TTITLE8=Clarence Carter - Slip Away
TTITLE9=The Mar-Keys - Last Night
TTITLE10=Wilson Pickett - Land of 1000 Dances
TTITLE11=King Curtis - Memphis Soul Stew
TTITLE12=Carla Thomas - B-A-B-Y
TTITLE13=Otis Redding - Try a Little Tenderness
EXTD=
EXTT0=
EXTT1=
EXTT2=
EXTT3=
EXTT4=
EXTT5=
EXTT6=
EXTT7=
EXTT8=
EXTT9=
EXTT10=
EXTT11=
EXTT12=
EXTT13=
PLAYORDER=
